<?xml version="1.0" encoding="UTF-8" standalone="no"?>
<!-- Created with Inkscape (http://www.inkscape.org/) -->

<svg
   version="1.1"
   id="svg900"
   width="546.1333"
   height="546.1333"
   viewBox="0 0 546.1333 546.1333"
   sodipodi:docname="ap.svg"
   inkscape:export-filename="/home/erikpolzin/Documents/University/HonoursProject/manage-ui/src/images/ap_offline.png"
   inkscape:export-xdpi="96"
   inkscape:export-ydpi="96"
   inkscape:version="1.1.2 (0a00cf5339, 2022-02-04)"
   xmlns:inkscape="http://www.inkscape.org/namespaces/inkscape"
   xmlns:sodipodi="http://sodipodi.sourceforge.net/DTD/sodipodi-0.dtd"
   xmlns="http://www.w3.org/2000/svg"
   xmlns:svg="http://www.w3.org/2000/svg">
  <defs
     id="defs904">
    <inkscape:path-effect
       effect="fill_between_many"
       method="originald"
       linkedpaths="#path1595,0,1"
       id="path-effect4685" />
    <filter
       style="color-interpolation-filters:sRGB;"
       inkscape:label="Drop Shadow"
       id="filter1685"
       x="-0.13124813"
       y="-0.10866576"
       width="1.2991841"
       height="1.2409159">
      <feFlood
         flood-opacity="0.6"
         flood-color="rgb(0,0,0)"
         result="flood"
         id="feFlood1675" />
      <feComposite
         in="flood"
         in2="SourceGraphic"
         operator="in"
         result="composite1"
         id="feComposite1677" />
      <feGaussianBlur
         in="composite1"
         stdDeviation="21.5753"
         result="blur"
         id="feGaussianBlur1679" />
      <feOffset
         dx="14.4743"
         dy="11.2383"
         result="offset"
         id="feOffset1681" />
      <feComposite
         in="SourceGraphic"
         in2="offset"
         operator="over"
         result="composite2"
         id="feComposite1683" />
    </filter>
  </defs>
  <sodipodi:namedview
     id="namedview902"
     pagecolor="#ffffff"
     bordercolor="#666666"
     borderopacity="1.0"
     inkscape:pageshadow="2"
     inkscape:pageopacity="0.0"
     inkscape:pagecheckerboard="0"
     showgrid="false"
     inkscape:zoom="1.4685059"
     inkscape:cx="243.10423"
     inkscape:cy="273.06666"
     inkscape:window-width="1920"
     inkscape:window-height="1012"
     inkscape:window-x="0"
     inkscape:window-y="0"
     inkscape:window-maximized="1"
     inkscape:current-layer="g906" />
  <g
     inkscape:groupmode="layer"
     inkscape:label="Image"
     id="g906">
    <path
       id="path4687"
       style="fill:#000000;stroke-width:0.734338;filter:url(#filter1685)"
       d="m 268.45312,35.458984 c -52.19262,0 -98.11916,18.287365 -137.77734,54.863282 C 91.017612,126.89821 71.189453,176.00949 71.189453,237.6543 c 0,18.49344 3.595184,37.91111 10.787109,58.2539 7.191875,20.34278 17.670167,41.50357 31.437498,63.49024 13.76732,21.98666 30.92438,44.69412 51.47266,68.11914 20.54828,23.42502 44.17784,47.46899 70.89062,72.12695 4.52059,4.10964 9.66056,7.19125 15.41407,9.24609 5.75355,2.05483 11.50821,3.08204 17.26171,3.08204 5.75354,0 11.50624,-1.02721 17.25977,-3.08204 5.7535,-2.05484 10.88953,-5.13645 15.41016,-9.24609 26.71273,-24.65796 50.34235,-48.70193 70.89062,-72.12695 20.54829,-23.42502 37.70338,-46.13248 51.47071,-68.11914 13.76735,-21.98667 24.25145,-43.14746 31.44335,-63.49024 7.19187,-20.34279 10.78711,-39.76046 10.78711,-58.2539 4e-5,-61.64481 -19.83206,-110.75609 -59.49023,-147.332034 C 366.56645,53.746349 320.64574,35.458984 268.45312,35.458984 Z" />
    <g
       id="g1538"
       transform="matrix(0.60400886,0,0,0.60400886,100.76346,84.006835)"
       style="fill:#ffffff">
      <path
         id="path1185"
         style="fill:#ffffff;stroke-width:1.06667"
         d="m 277.62695,168.42969 c -15.45381,0 -23.58431,2.00923 -37.86718,9.35937 -11.92861,6.13861 -26.07232,20.28234 -32.21094,32.21094 -7.23842,14.06577 -9.33775,22.45157 -9.34375,37.33398 -0.007,15.4289 1.67101,22.55407 8.66406,36.79883 4.19516,8.54551 6.49364,11.65167 14.66602,19.81641 7.93717,7.92974 11.44431,10.55751 19.37695,14.52148 5.32694,2.6619 12.16616,5.47461 15.19922,6.25196 l 5.51562,1.41406 v 90.66211 c 0,89.22979 0.0345,90.73227 2.1875,95.17969 1.56202,3.22668 3.46761,5.15313 6.66602,6.73632 5.62507,2.78438 8.49445,2.78879 14.21094,0.0215 3.29569,-1.59542 5.14287,-3.44064 6.73828,-6.73633 2.16595,-4.47432 2.19726,-5.83792 2.19726,-95.20117 v -90.66211 l 5.51367,-1.41406 c 3.03307,-0.77735 9.87424,-3.59006 15.20118,-6.25196 7.93264,-3.96397 11.43783,-6.59174 19.375,-14.52148 8.17238,-8.16474 10.47085,-11.2709 14.66601,-19.81641 6.99305,-14.24476 8.67006,-21.36993 8.66407,-36.79883 -0.007,-14.88241 -2.10533,-23.26821 -9.34376,-37.33398 -6.13861,-11.9286 -20.28232,-26.07233 -32.21093,-32.21094 -14.28287,-7.35014 -22.41143,-9.35937 -37.86524,-9.35937 z m -1.57031,31.70508 c 2.82363,-0.0849 5.69434,0.10092 8.58594,0.58007 20.9253,3.46743 36.66929,19.20947 40.13672,40.13477 4.07853,24.61314 -13.46139,49.17852 -38.50391,53.92773 -26.26673,4.98138 -51.33446,-12.94116 -55.80078,-39.89453 -4.63183,-27.95216 18.28699,-53.92749 45.58203,-54.74804 z" />
      <path
         style="fill:#ffffff;stroke-width:1.06667"
         d="m 377.05706,396.14608 c -3.48831,-1.58323 -5.06001,-3.15493 -6.64324,-6.64324 -4.05934,-8.94388 -1.85607,-14.76681 9.27817,-24.52074 26.5391,-23.24906 44.79209,-55.29881 51.20644,-89.91155 2.45143,-13.22818 2.42062,-41.33782 -0.06,-54.75333 -6.38802,-34.5472 -22.87871,-63.94605 -49.784,-88.75269 -11.18629,-10.31375 -13.49901,-14.20544 -12.41426,-20.88996 1.27306,-7.84491 7.72114,-13.210828 15.86661,-13.203746 5.52791,0.0048 8.60295,1.795453 18.50616,10.776436 71.02119,64.40744 82.67275,170.0925 27.38773,248.41956 -3.93378,5.57333 -13.28538,16.28044 -20.78131,23.79356 -17.7214,17.762 -22.70173,20.16109 -32.56229,15.6857 z"
         id="path1512" />
      <path
         style="fill:#ffffff;stroke-width:1.06667"
         d="m 163.77779,396.17028 c -6.3187,-2.86832 -30.10796,-27.01073 -38.92561,-39.50347 -24.01099,-34.01844 -36.495963,-76.18762 -34.58082,-116.79999 2.432512,-51.58365 23.83105,-97.03356 61.96855,-131.61957 9.90321,-8.980983 12.97825,-10.771629 18.50615,-10.776435 8.14548,-0.007 14.59356,5.358835 15.86662,13.203745 1.07807,6.64338 -1.21295,10.50135 -12.32522,20.75518 -26.94121,24.85994 -43.48647,54.34813 -49.87304,88.88747 -2.48063,13.41551 -2.51144,41.52515 -0.0601,54.75333 6.41435,34.61274 24.66733,66.66249 51.20643,89.91155 11.13424,9.75393 13.33752,15.57686 9.27818,24.52074 -1.58323,3.48831 -3.15493,5.06001 -6.64324,6.64324 -5.73656,2.60364 -8.72463,2.60865 -14.418,0.0242 z"
         id="path1510" />
      <path
         style="fill:#ffffff;stroke-width:1.06667"
         d="m 434.95974,464.39774 c -9.95963,-2.15943 -15.22971,-10.79509 -12.38411,-20.29286 0.94458,-3.15276 3.48054,-6.03031 11.07134,-12.56261 34.26924,-29.49062 58.41091,-65.27596 72.73861,-107.8209 18.42529,-54.71242 15.78686,-117.58211 -7.17983,-171.08409 -15.47965,-36.06057 -35.51561,-62.573355 -70.32024,-93.052028 -6.19222,-5.422572 -8.23542,-11.186845 -6.2794,-17.715447 1.67195,-5.580454 5.04282,-8.951328 10.62328,-10.623273 7.18544,-2.15281 11.3327,-0.196265 25.13731,11.858978 47.84594,41.782734 79.26122,99.66588 89.30461,164.54511 3.03431,19.60138 3.31683,58.75366 0.55424,76.8084 -4.58291,29.95129 -12.40355,55.94498 -24.21593,80.48714 -14.85534,30.86443 -29.56141,51.46159 -54.26179,75.99851 -21.57886,21.43604 -27.05708,25.12929 -34.78809,23.45307 z"
         id="path1508" />
      <path
         style="fill:#ffffff;stroke-width:1.06667"
         d="M 112.97254,463.85188 C 107.53464,461.98242 96.608805,452.74022 81.580852,437.29757 40.977362,395.57358 16.282962,344.94883 7.0272863,284.45902 4.2646866,266.40428 4.5472166,227.252 7.5815263,207.65062 15.955819,153.55359 37.655906,107.14562 73.702403,66.244039 87.560312,50.519614 107.37992,32.999079 113.32461,31.218008 c 8.38618,-2.51256 16.76126,2.104412 19.32212,10.651797 1.95602,6.528602 -0.0872,12.292875 -6.2794,17.715447 C 107.04179,76.508771 95.04937,89.129515 83.392346,104.81186 37.513879,166.53278 24.251203,250.626 48.867253,323.72137 c 14.327698,42.54494 38.469368,78.33028 72.738617,107.8209 7.5908,6.5323 10.12676,9.40985 11.07134,12.56261 3.66759,12.24127 -7.87887,23.81252 -19.70467,19.747 z"
         id="path1506" />
    </g>
    <path
       style="fill:#000000;stroke-width:0.306928"
       d="M 218.32384,458.13976 Z"
       id="path1597" />
  </g>
</svg>
